<svg width="125" height="80" viewBox="0 0 125 80" fill="none" xmlns="http://www.w3.org/2000/svg">
<path d="M124.5 40C124.5 62.0914 62.0914 80 40 80C17.9086 80 0 62.0914 0 40C0 17.9086 17.9086 0 40 0C62.0914 0 124.5 17.9086 124.5 40Z" fill="#FF1850"/>
<path d="M60.44 43.1C59.3467 43.1 58.3867 42.8733 57.56 42.42C56.7333 41.9533 56.0867 41.32 55.62 40.52C55.1533 39.7067 54.92 38.78 54.92 37.74C54.92 36.7 55.14 35.78 55.58 34.98C56.0333 34.18 56.6467 33.5533 57.42 33.1C58.2067 32.6333 59.0867 32.4 60.06 32.4C61.0467 32.4 61.92 32.6267 62.68 33.08C63.4533 33.52 64.06 34.1467 64.5 34.96C64.94 35.76 65.16 36.6867 65.16 37.74C65.16 37.8067 65.1533 37.88 65.14 37.96C65.14 38.0267 65.14 38.1 65.14 38.18H56V37.12H64.38L63.82 37.54C63.82 36.78 63.6533 36.1067 63.32 35.52C63 34.92 62.56 34.4533 62 34.12C61.44 33.7867 60.7933 33.62 60.06 33.62C59.34 33.62 58.6933 33.7867 58.12 34.12C57.5467 34.4533 57.1 34.92 56.78 35.52C56.46 36.12 56.3 36.8067 56.3 37.58V37.8C56.3 38.6 56.4733 39.3067 56.82 39.92C57.18 40.52 57.6733 40.9933 58.3 41.34C58.94 41.6733 59.6667 41.84 60.48 41.84C61.12 41.84 61.7133 41.7267 62.26 41.5C62.82 41.2733 63.3 40.9267 63.7 40.46L64.5 41.38C64.0333 41.94 63.4467 42.3667 62.74 42.66C62.0467 42.9533 61.28 43.1 60.44 43.1ZM66.1573 43L70.5973 37.24L70.5773 37.94L66.3573 32.5H67.9573L71.4173 37L70.8173 36.98L74.2773 32.5H75.8373L71.5773 38L71.5973 37.24L76.0773 43H74.4573L70.7973 38.2L71.3573 38.28L67.7573 43H66.1573ZM82.3498 43.1C81.3365 43.1 80.4232 42.8733 79.6098 42.42C78.8098 41.9533 78.1765 41.32 77.7098 40.52C77.2432 39.7067 77.0098 38.78 77.0098 37.74C77.0098 36.6867 77.2432 35.76 77.7098 34.96C78.1765 34.16 78.8098 33.5333 79.6098 33.08C80.4098 32.6267 81.3232 32.4 82.3498 32.4C83.3898 32.4 84.3098 32.6267 85.1098 33.08C85.9232 33.5333 86.5565 34.16 87.0098 34.96C87.4765 35.76 87.7098 36.6867 87.7098 37.74C87.7098 38.78 87.4765 39.7067 87.0098 40.52C86.5565 41.32 85.9232 41.9533 85.1098 42.42C84.2965 42.8733 83.3765 43.1 82.3498 43.1ZM82.3498 41.84C83.1098 41.84 83.7832 41.6733 84.3698 41.34C84.9565 40.9933 85.4165 40.5133 85.7498 39.9C86.0965 39.2733 86.2698 38.5533 86.2698 37.74C86.2698 36.9133 86.0965 36.1933 85.7498 35.58C85.4165 34.9667 84.9565 34.4933 84.3698 34.16C83.7832 33.8133 83.1165 33.64 82.3698 33.64C81.6232 33.64 80.9565 33.8133 80.3698 34.16C79.7832 34.4933 79.3165 34.9667 78.9698 35.58C78.6232 36.1933 78.4498 36.9133 78.4498 37.74C78.4498 38.5533 78.6232 39.2733 78.9698 39.9C79.3165 40.5133 79.7832 40.9933 80.3698 41.34C80.9565 41.6733 81.6165 41.84 82.3498 41.84ZM90.6089 43V28.16H92.0289V43H90.6089ZM95.98 43V28.16H97.4V43H95.98Z" fill="white"/>
<path d="M21.82 62L28.06 48H31.26L37.52 62H34.12L29 49.64H30.28L25.14 62H21.82ZM24.94 59L25.8 56.54H33L33.88 59H24.94ZM38.9725 62V48H45.0325C46.2858 48 47.3658 48.2067 48.2725 48.62C49.1792 49.02 49.8792 49.6 50.3725 50.36C50.8658 51.12 51.1125 52.0267 51.1125 53.08C51.1125 54.12 50.8658 55.02 50.3725 55.78C49.8792 56.5267 49.1792 57.1 48.2725 57.5C47.3658 57.9 46.2858 58.1 45.0325 58.1H40.7725L42.2125 56.68V62H38.9725ZM47.8725 62L44.3725 56.92H47.8325L51.3725 62H47.8725ZM42.2125 57.04L40.7725 55.52H44.8525C45.8525 55.52 46.5992 55.3067 47.0925 54.88C47.5858 54.44 47.8325 53.84 47.8325 53.08C47.8325 52.3067 47.5858 51.7067 47.0925 51.28C46.5992 50.8533 45.8525 50.64 44.8525 50.64H40.7725L42.2125 49.1V57.04ZM56.3842 62V50.64H51.9042V48H64.1042V50.64H59.6242V62H56.3842Z" fill="white"/>
<path d="M29 23L22 16.5V42H29V23Z" fill="white"/>
<path d="M34 28H31.5V35.5L38 42H49L34 28Z" fill="white"/>
<path d="M31 21L23.5 14H44.9158C59.5 22 51.5 31.5 45.5 34.5L39 28H43.5C47.6714 24.8 45.2381 22 43.5 21H31Z" fill="white"/>
<path d="M29 23L22 16.5V42H29V23Z" stroke="white"/>
<path d="M34 28H31.5V35.5L38 42H49L34 28Z" stroke="white"/>
<path d="M31 21L23.5 14H44.9158C59.5 22 51.5 31.5 45.5 34.5L39 28H43.5C47.6714 24.8 45.2381 22 43.5 21H31Z" stroke="white"/>
</svg>
