<svg width="165" height="165" viewBox="0 0 165 165" fill="none" xmlns="http://www.w3.org/2000/svg">
<g clip-path="url(#clip0_0_55)">
<path d="M164.682 90.1216C163.2 75.2205 156.543 61.1724 145.936 50.5648C136.871 41.5003 125.776 35.6753 114.102 33.0852V24.8969C118.87 23.7107 122.414 19.3945 122.414 14.2643C122.414 8.22234 117.499 3.30707 111.457 3.30707H88.2535C82.2116 3.30707 77.2963 8.22234 77.2963 14.2643C77.2963 19.3942 80.8406 23.7103 85.6086 24.8969V33.1081C73.9698 35.7091 62.9114 41.5261 53.8724 50.5652C51.8943 52.5433 50.0702 54.6184 48.4005 56.775C48.3196 56.7689 48.2388 56.7627 48.1563 56.7627H25.1909C23.4114 56.7627 21.9682 58.2056 21.9682 59.9855C21.9682 61.7654 23.4114 63.2082 25.1909 63.2082H44.0154C41.6525 67.164 39.7472 71.3184 38.297 75.595H3.22271C1.44313 75.595 0 77.0378 0 78.8177C0 80.5976 1.44313 82.0404 3.22271 82.0404H36.4759C35.5471 86.1174 35.0141 90.2666 34.8764 94.4275H20.6253C18.8457 94.4275 17.4026 95.8703 17.4026 97.6502C17.4026 99.4301 18.8457 100.873 20.6253 100.873H34.9793C35.2513 105.044 35.9219 109.194 36.9915 113.26H16.1135C14.334 113.26 12.8908 114.703 12.8908 116.483C12.8908 118.263 14.334 119.705 16.1135 119.705H39.0482C42.2097 128.069 47.1504 135.907 53.8724 142.629C64.4899 153.247 78.5525 159.905 93.4691 161.379C95.598 161.589 97.7286 161.693 99.8562 161.693C112.432 161.693 124.848 158.054 135.383 151.194C136.874 150.222 137.296 148.226 136.325 146.734C135.353 145.243 133.357 144.821 131.865 145.792C108.805 160.809 77.9205 157.562 58.4299 138.072C35.561 115.203 35.561 77.9923 58.4299 55.123C81.2986 32.2544 118.509 32.2544 141.378 55.123C160.843 74.5882 164.108 105.446 149.14 128.495C148.171 129.988 148.595 131.984 150.088 132.953C151.581 133.923 153.577 133.498 154.546 132.006C162.543 119.69 166.142 104.816 164.682 90.1216ZM83.7417 14.2646C83.7417 11.7767 85.7656 9.7528 88.2535 9.7528H111.457C113.945 9.7528 115.969 11.7767 115.969 14.2646C115.969 16.7525 113.945 18.7764 111.457 18.7764H110.879H88.8313H88.2535C85.7656 18.7764 83.7417 16.7522 83.7417 14.2646ZM92.054 32.0001V25.2218H107.656V31.9885C102.475 31.3723 97.2339 31.3762 92.054 32.0001Z" fill="url(#paint0_linear_0_55)"/>
<path d="M143.659 137.126C142.808 137.126 141.98 137.471 141.38 138.07C140.778 138.67 140.436 139.501 140.436 140.349C140.436 141.196 140.778 142.028 141.38 142.627C141.98 143.23 142.808 143.571 143.659 143.571C144.506 143.571 145.334 143.23 145.937 142.627C146.536 142.028 146.881 141.196 146.881 140.349C146.881 139.501 146.537 138.67 145.937 138.07C145.334 137.471 144.506 137.126 143.659 137.126Z" fill="url(#paint1_linear_0_55)"/>
<path d="M99.9042 46.6032C72.3378 46.6032 49.9107 69.03 49.9107 96.5967C49.9107 124.163 72.3378 146.59 99.9042 146.59C127.471 146.59 149.898 124.163 149.898 96.5967C149.898 69.03 127.471 46.6032 99.9042 46.6032ZM99.9042 140.145C75.8915 140.145 56.3561 120.609 56.3561 96.5967C56.3561 72.5844 75.8915 53.0486 99.9042 53.0486C123.917 53.0486 143.452 72.5844 143.452 96.5967C143.452 120.609 123.917 140.145 99.9042 140.145Z" fill="url(#paint2_linear_0_55)"/>
<path d="M120.29 71.6536L104.328 87.6154C102.993 86.9554 101.491 86.5825 99.9042 86.5825C98.3167 86.5825 96.8156 86.9554 95.4807 87.6154L88.337 80.4716C87.0782 79.2131 85.0382 79.2131 83.7791 80.4716C82.5206 81.7301 82.5206 83.7707 83.7791 85.0292L90.9229 92.1729C90.2625 93.5078 89.89 95.0092 89.89 96.5964C89.89 102.118 94.3821 106.611 99.9042 106.611C105.426 106.611 109.918 102.118 109.918 96.5964C109.918 95.0092 109.546 93.5078 108.886 92.1729L124.379 76.6794L124.847 76.2112C126.106 74.9527 126.106 72.9121 124.847 71.6536C123.589 70.3952 121.549 70.3952 120.29 71.6536ZM99.9042 100.166C97.9364 100.166 96.3354 98.5645 96.3354 96.5967C96.3354 94.629 97.9364 93.0279 99.9042 93.0279C101.872 93.0279 103.473 94.629 103.473 96.5967C103.473 98.5645 101.872 100.166 99.9042 100.166Z" fill="url(#paint3_linear_0_55)"/>
<path d="M134.361 93.4133H131.375C129.596 93.4133 128.153 94.8561 128.153 96.636C128.153 98.4159 129.596 99.8586 131.375 99.8586H134.361C136.141 99.8586 137.584 98.4159 137.584 96.636C137.584 94.8561 136.141 93.4133 134.361 93.4133Z" fill="url(#paint4_linear_0_55)"/>
<path d="M68.4328 93.3347H65.4473C63.6678 93.3347 62.2247 94.7775 62.2247 96.5574C62.2247 98.3372 63.6678 99.78 65.4473 99.78H68.4328C70.2123 99.78 71.6554 98.3372 71.6554 96.5574C71.6554 94.7775 70.2123 93.3347 68.4328 93.3347Z" fill="url(#paint5_linear_0_55)"/>
<path d="M99.9435 68.3479C101.723 68.3479 103.166 66.9052 103.166 65.1253V62.1398C103.166 60.36 101.723 58.9172 99.9435 58.9172C98.1639 58.9172 96.7208 60.36 96.7208 62.1398V65.1253C96.7208 66.9052 98.1639 68.3479 99.9435 68.3479Z" fill="url(#paint6_linear_0_55)"/>
<path d="M99.8649 124.845C98.0853 124.845 96.6422 126.288 96.6422 128.068V131.054C96.6422 132.833 98.0853 134.276 99.8649 134.276C101.644 134.276 103.088 132.833 103.088 131.054V128.068C103.088 126.288 101.644 124.845 99.8649 124.845Z" fill="url(#paint7_linear_0_55)"/>
<path d="M3.22266 113.259C2.3751 113.259 1.54365 113.604 0.944238 114.203C0.344824 114.802 0 115.634 0 116.481C0 117.332 0.344502 118.16 0.944238 118.76C1.54397 119.359 2.3751 119.704 3.22266 119.704C4.07021 119.704 4.90166 119.359 5.50075 118.76C6.10017 118.16 6.44531 117.329 6.44531 116.481C6.44531 115.634 6.10049 114.802 5.50075 114.203C4.90166 113.604 4.07021 113.259 3.22266 113.259Z" fill="url(#paint8_linear_0_55)"/>
</g>
<defs>
<linearGradient id="paint0_linear_0_55" x1="82.5" y1="3.30707" x2="82.5" y2="161.693" gradientUnits="userSpaceOnUse">
<stop stop-color="#F81F01"/>
<stop offset="1" stop-color="#EE076E"/>
</linearGradient>
<linearGradient id="paint1_linear_0_55" x1="143.659" y1="137.126" x2="143.659" y2="143.571" gradientUnits="userSpaceOnUse">
<stop stop-color="#F81F01"/>
<stop offset="1" stop-color="#EE076E"/>
</linearGradient>
<linearGradient id="paint2_linear_0_55" x1="99.9042" y1="46.6032" x2="99.9042" y2="146.59" gradientUnits="userSpaceOnUse">
<stop stop-color="#F81F01"/>
<stop offset="1" stop-color="#EE076E"/>
</linearGradient>
<linearGradient id="paint3_linear_0_55" x1="104.313" y1="70.7098" x2="104.313" y2="106.611" gradientUnits="userSpaceOnUse">
<stop stop-color="#F81F01"/>
<stop offset="1" stop-color="#EE076E"/>
</linearGradient>
<linearGradient id="paint4_linear_0_55" x1="132.868" y1="93.4133" x2="132.868" y2="99.8586" gradientUnits="userSpaceOnUse">
<stop stop-color="#F81F01"/>
<stop offset="1" stop-color="#EE076E"/>
</linearGradient>
<linearGradient id="paint5_linear_0_55" x1="66.9401" y1="93.3347" x2="66.9401" y2="99.78" gradientUnits="userSpaceOnUse">
<stop stop-color="#F81F01"/>
<stop offset="1" stop-color="#EE076E"/>
</linearGradient>
<linearGradient id="paint6_linear_0_55" x1="99.9435" y1="58.9172" x2="99.9435" y2="68.3479" gradientUnits="userSpaceOnUse">
<stop stop-color="#F81F01"/>
<stop offset="1" stop-color="#EE076E"/>
</linearGradient>
<linearGradient id="paint7_linear_0_55" x1="99.8649" y1="124.845" x2="99.8649" y2="134.276" gradientUnits="userSpaceOnUse">
<stop stop-color="#F81F01"/>
<stop offset="1" stop-color="#EE076E"/>
</linearGradient>
<linearGradient id="paint8_linear_0_55" x1="3.22266" y1="113.259" x2="3.22266" y2="119.704" gradientUnits="userSpaceOnUse">
<stop stop-color="#F81F01"/>
<stop offset="1" stop-color="#EE076E"/>
</linearGradient>
<clipPath id="clip0_0_55">
<rect width="165" height="165" fill="white"/>
</clipPath>
</defs>
</svg>
