<svg width="166" height="165" viewBox="0 0 166 165" fill="none" xmlns="http://www.w3.org/2000/svg">
<g clip-path="url(#clip0_0_42)">
<path d="M115.477 81.2169C115.044 80.221 114.747 79.1707 114.592 78.0953C114.19 75.3013 113.418 72.5689 112.297 69.9734C111.768 68.7487 110.346 68.184 109.12 68.7136C107.895 69.243 107.331 70.6651 107.86 71.89C108.812 74.0931 109.468 76.4125 109.809 78.7835C110.025 80.2842 110.44 81.7501 111.043 83.14L116.288 95.2348C118.504 100.343 117.796 106.024 114.396 110.433C111.499 114.189 107.211 116.28 102.602 116.298C103.938 113.484 104.689 110.34 104.689 107.023V84.7867C104.689 82.0916 102.578 79.9246 99.8832 79.8534L86.212 79.4932C81.5497 79.3702 76.9902 77.6816 73.3727 74.7388L72.4728 74.0065C71.6332 73.3231 70.5784 73.0112 69.5016 73.1253C68.4252 73.2403 67.46 73.769 66.7837 74.6141C63.2368 79.0457 61.2834 84.6121 61.2834 90.288V107.023C61.2834 110.34 62.0338 113.484 63.3695 116.298C58.7617 116.281 54.4731 114.189 51.5763 110.433C48.1757 106.024 47.4682 100.343 49.6835 95.2348L54.9287 83.1404C55.5315 81.7501 55.9468 80.2842 56.1629 78.7835C57.0912 72.3327 60.3152 66.4293 65.2408 62.1617C70.1663 57.8941 76.4685 55.5437 82.9857 55.5437C90.3508 55.5437 97.2426 58.4508 102.391 63.7298C103.322 64.6857 104.853 64.7041 105.808 63.7726C106.763 62.8412 106.782 61.3108 105.851 60.3559C99.7849 54.1361 91.6646 50.711 82.9853 50.711C75.3058 50.711 67.8798 53.4805 62.076 58.5091C56.2722 63.5378 52.473 70.4937 51.3792 78.095C51.2245 79.1707 50.9271 80.221 50.4948 81.2169L45.2496 93.3117C42.3239 100.058 43.2582 107.562 47.7495 113.384C51.5912 118.365 57.2829 121.141 63.3979 121.141C64.3683 121.141 65.351 121.068 66.3372 120.926C68.0418 122.964 70.1132 124.684 72.4483 125.987V130.65L60.0936 135.606C51.4372 139.079 45.8437 147.351 45.8437 156.678V162.583C45.8437 163.918 46.9253 165 48.2601 165C49.5949 165 50.6765 163.918 50.6765 162.583V156.678C50.6765 149.336 55.0794 142.825 61.8933 140.092L73.0141 135.63C74.403 139.624 78.2028 142.499 82.6635 142.499C87.1241 142.499 90.9239 139.624 92.3129 135.63L103.435 140.092C103.727 140.209 104.035 140.345 104.406 140.519C104.738 140.676 105.088 140.75 105.433 140.75C106.34 140.75 107.209 140.236 107.621 139.361C108.189 138.153 107.67 136.714 106.463 136.146C106.005 135.931 105.614 135.759 105.234 135.607L92.8789 130.65V126.33C95.478 124.992 97.7748 123.149 99.6345 120.926C100.621 121.068 101.603 121.141 102.574 121.141C108.688 121.141 114.381 118.365 118.222 113.384C122.713 107.562 123.648 100.058 120.722 93.3117L115.477 81.2169ZM88.0462 132.284C88.0462 135.252 85.6317 137.666 82.6638 137.666C79.6958 137.666 77.2814 135.252 77.2814 132.284V127.96C79.1004 128.456 81.012 128.726 82.986 128.726C84.7283 128.726 86.4214 128.514 88.0462 128.124V132.284ZM82.986 123.893C73.6842 123.893 66.1165 116.326 66.1165 107.024V90.2883C66.1165 85.9762 67.5128 81.7427 70.0635 78.277L70.3229 78.488C74.7639 82.1007 80.3615 84.1733 86.0847 84.3244L99.7556 84.6846C99.812 84.6862 99.8561 84.7313 99.8561 84.787V107.024C99.8555 116.326 92.2877 123.893 82.986 123.893Z" fill="url(#paint0_linear_0_42)"/>
<path d="M111.939 142.985C110.849 143.756 110.591 145.264 111.363 146.353C113.514 149.392 114.651 152.963 114.651 156.678V162.584C114.651 163.918 115.732 165 117.067 165C118.402 165 119.484 163.918 119.484 162.584V156.678C119.484 151.957 118.04 147.421 115.307 143.561C114.536 142.472 113.028 142.214 111.939 142.985Z" fill="url(#paint1_linear_0_42)"/>
<path d="M37.311 36.1876C31.9283 32.5095 25.1953 31.821 18.8374 34.3015C14.1995 36.1103 10.4915 39.7947 8.66281 44.4097C7.47299 47.4134 6.98198 50.4851 7.20461 53.5397C7.30191 54.8707 8.45533 55.872 9.79013 55.7744C11.1211 55.6774 12.1214 54.5198 12.0248 53.1889C11.8556 50.8662 12.2361 48.5114 13.156 46.1901C14.4918 42.8188 17.2029 40.1269 20.5939 38.804C25.4408 36.9135 30.5407 37.4141 34.5847 40.1778C38.5373 42.8784 40.8966 47.3441 40.8966 52.1234C40.8966 55.1229 39.9864 57.9987 38.2647 60.4412C38.2447 60.4696 38.2254 60.4986 38.2064 60.5275L30.0877 73.1668C29.8377 73.5566 29.7046 74.0096 29.7046 74.4729V75.5735H28.8569V63.4765C31.3113 63.2561 33.2419 61.1903 33.2419 58.6795V54.7144C33.2419 52.0574 31.08 49.8955 28.423 49.8955H24.4578C21.8008 49.8955 19.639 52.0574 19.639 54.7144V58.6795C19.639 61.19 21.5698 63.2561 24.0239 63.4765V75.5738H23.1762V74.4732C23.1762 74.0099 23.0431 73.557 22.7931 73.1671L15.4048 61.6649C14.6838 60.542 13.1888 60.2166 12.0657 60.9377C10.9432 61.6587 10.6175 63.154 11.3385 64.2768L18.3435 75.1824V76.9135C18.3435 77.6045 18.5477 78.2476 18.8954 78.7905V81.2926C18.8954 85.1797 22.0579 88.3426 25.9457 88.3426H26.9348C30.8223 88.3426 33.9851 85.18 33.9851 81.2926V78.7905C34.3328 78.2476 34.537 77.6045 34.537 76.9135V75.1824L42.2453 63.182C44.5244 59.9299 45.729 56.1072 45.729 52.1237C45.729 45.7468 42.5823 39.7896 37.311 36.1876ZM28.4088 54.7144L28.4242 58.6657L26.5688 58.6721C26.5259 58.6698 26.4834 58.6657 26.4399 58.6657C26.39 58.6657 26.341 58.6702 26.292 58.6731L24.4714 58.6795L24.4575 54.7283L28.4088 54.7144ZM29.1524 81.2922C29.1524 82.5149 28.1575 83.5095 26.9348 83.5095H25.9457C24.723 83.5095 23.7281 82.5149 23.7281 81.2922V80.4062H29.1524V81.2922Z" fill="url(#paint2_linear_0_42)"/>
<path d="M82.6638 42.9042C94.4927 42.9042 104.116 33.2809 104.116 21.4519C104.116 9.62329 94.4927 0 82.6638 0C70.8348 0 61.2115 9.62329 61.2115 21.4519C61.2115 33.2809 70.8348 42.9042 82.6638 42.9042ZM82.6638 4.83275C91.8276 4.83275 99.2833 12.2881 99.2833 21.4519C99.2833 30.6158 91.8276 38.0714 82.6638 38.0714C73.4999 38.0714 66.0443 30.6158 66.0443 21.4519C66.0443 12.2881 73.4999 4.83275 82.6638 4.83275Z" fill="url(#paint3_linear_0_42)"/>
<path d="M78.4148 29.5155C78.8865 29.9872 79.5051 30.2231 80.1234 30.2231C80.7416 30.2231 81.3602 29.9872 81.8322 29.5155L93.1209 18.2269C94.0646 17.2829 94.0646 15.7532 93.1209 14.8095C92.1769 13.8662 90.6472 13.8662 89.7035 14.8095L80.1237 24.3896L78.498 22.7642C77.5546 21.8208 76.0246 21.8205 75.0809 22.7645C74.1372 23.7082 74.1372 25.2382 75.0812 26.1816L78.4148 29.5155Z" fill="url(#paint4_linear_0_42)"/>
<path d="M158.66 48.0617C158.214 46.6863 157.047 45.7033 155.617 45.4952L145.575 44.036L141.084 34.9359C140.444 33.6398 139.148 32.8347 137.703 32.8347C136.258 32.8347 134.962 33.6398 134.323 34.9359L129.831 44.036L119.789 45.4952C118.358 45.7033 117.192 46.6863 116.746 48.0614C116.299 49.4361 116.665 50.9165 117.7 51.9253L124.967 59.0085L123.251 69.0107C123.007 70.4354 123.582 71.8481 124.751 72.6974C125.92 73.5473 127.441 73.6572 128.721 72.9845L137.703 68.2622L146.686 72.9845C147.242 73.277 147.844 73.4214 148.443 73.4214C149.222 73.4214 149.995 73.1771 150.656 72.6971C151.825 71.8472 152.4 70.4347 152.155 69.0103L150.44 59.0088L157.706 51.9256C158.741 50.9169 159.107 49.4361 158.66 48.0617ZM146.666 55.9374C145.777 56.8035 145.372 58.051 145.582 59.2746L147.027 67.7045L139.457 63.7246C138.908 63.4359 138.305 63.2913 137.703 63.2913C137.1 63.2913 136.498 63.4356 135.948 63.7243L128.378 67.7045L129.824 59.274C130.033 58.0506 129.628 56.8032 128.74 55.9378L122.615 49.968L131.08 48.7383C132.308 48.5591 133.369 47.7881 133.917 46.676L137.703 39.0061L141.487 46.6747C142.036 47.7878 143.097 48.5591 144.326 48.7379L152.79 49.9677L146.666 55.9374Z" fill="url(#paint5_linear_0_42)"/>
<path d="M108.286 30.9953C111.973 32.4336 115.546 34.1952 118.949 36.2408C117.885 36.7405 117.316 37.9535 117.662 39.1143C117.974 40.163 118.935 40.8412 119.977 40.8412C120.205 40.8412 120.437 40.8084 120.668 40.7401L125.245 39.3766C126.27 39.0718 126.972 38.1297 126.972 37.0607V32.1094C126.972 30.7746 125.89 29.6931 124.555 29.6931C123.221 29.6931 122.139 30.7746 122.139 32.1094V32.527C118.293 30.158 114.238 28.1295 110.042 26.4928C108.799 26.0076 107.398 26.6223 106.913 27.866C106.428 29.1093 107.043 30.5101 108.286 30.9953Z" fill="url(#paint6_linear_0_42)"/>
<path d="M44.5334 36.9467C44.9648 36.9467 45.4017 36.8314 45.796 36.5891C48.0519 35.203 50.401 33.9394 52.8016 32.815L52.6759 33.2854C52.3312 34.5745 53.097 35.899 54.3864 36.244C54.5952 36.2998 54.8052 36.3265 55.0118 36.3265C56.0788 36.3265 57.056 35.6135 57.3447 34.5335L58.8203 29.012C59.1489 27.7835 58.4685 26.5102 57.2645 26.1007L52.8364 24.5935C51.574 24.1625 50.2003 24.8387 49.7705 26.1027C49.4596 27.0157 49.7283 27.9839 50.3771 28.6141C47.9421 29.771 45.5592 31.063 43.2665 32.4716C42.1296 33.1704 41.7739 34.6582 42.4724 35.7952C42.9286 36.5375 43.7215 36.9467 44.5334 36.9467Z" fill="url(#paint7_linear_0_42)"/>
</g>
<defs>
<linearGradient id="paint0_linear_0_42" x1="82.9858" y1="50.711" x2="82.9858" y2="165" gradientUnits="userSpaceOnUse">
<stop stop-color="#F81F01"/>
<stop offset="1" stop-color="#EE076E"/>
</linearGradient>
<linearGradient id="paint1_linear_0_42" x1="115.201" y1="142.541" x2="115.201" y2="165" gradientUnits="userSpaceOnUse">
<stop stop-color="#F81F01"/>
<stop offset="1" stop-color="#EE076E"/>
</linearGradient>
<linearGradient id="paint2_linear_0_42" x1="26.4407" y1="32.8344" x2="26.4407" y2="88.3426" gradientUnits="userSpaceOnUse">
<stop stop-color="#F81F01"/>
<stop offset="1" stop-color="#EE076E"/>
</linearGradient>
<linearGradient id="paint3_linear_0_42" x1="82.6638" y1="0" x2="82.6638" y2="42.9042" gradientUnits="userSpaceOnUse">
<stop stop-color="#F81F01"/>
<stop offset="1" stop-color="#EE076E"/>
</linearGradient>
<linearGradient id="paint4_linear_0_42" x1="84.1009" y1="14.102" x2="84.1009" y2="30.2231" gradientUnits="userSpaceOnUse">
<stop stop-color="#F81F01"/>
<stop offset="1" stop-color="#EE076E"/>
</linearGradient>
<linearGradient id="paint5_linear_0_42" x1="137.703" y1="32.8347" x2="137.703" y2="73.4216" gradientUnits="userSpaceOnUse">
<stop stop-color="#F81F01"/>
<stop offset="1" stop-color="#EE076E"/>
</linearGradient>
<linearGradient id="paint6_linear_0_42" x1="116.859" y1="26.3268" x2="116.859" y2="40.8412" gradientUnits="userSpaceOnUse">
<stop stop-color="#F81F01"/>
<stop offset="1" stop-color="#EE076E"/>
</linearGradient>
<linearGradient id="paint7_linear_0_42" x1="50.5087" y1="24.4636" x2="50.5087" y2="36.9467" gradientUnits="userSpaceOnUse">
<stop stop-color="#F81F01"/>
<stop offset="1" stop-color="#EE076E"/>
</linearGradient>
<clipPath id="clip0_0_42">
<rect width="165" height="165" fill="white" transform="translate(0.5)"/>
</clipPath>
</defs>
</svg>
