<svg width="120" height="121" viewBox="0 0 120 121" fill="none" xmlns="http://www.w3.org/2000/svg">
<g clip-path="url(#clip0_0_35)">
<path d="M73.5725 49.3531L55.5425 66.3829L46.8894 57.4807C45.9301 56.4931 44.3505 56.4706 43.3639 57.4299C42.3763 58.3901 42.3538 59.9688 43.3131 60.9564L53.6913 71.6101C54.6555 72.5801 56.2136 72.6133 57.2178 71.6843L77.0492 52.9793C77.5308 52.525 77.8122 51.8979 77.8307 51.2365C77.8493 50.5752 77.6041 49.9334 77.1489 49.4528C76.1837 48.4495 74.5924 48.4056 73.5725 49.3531Z" fill="url(#paint0_linear_0_35)"/>
<path d="M60.1934 23.1448C39.5874 23.1448 22.8322 39.9 22.8322 60.5061C22.8322 81.1131 39.5874 97.8683 60.1934 97.8683C80.8005 97.8683 97.5557 81.1131 97.5557 60.5061C97.5557 39.9 80.8005 23.1448 60.1934 23.1448ZM60.1934 92.8668C42.3383 92.8668 27.8337 78.3368 27.8337 60.5061C27.8337 42.6753 42.3383 28.1463 60.1934 28.1463C78.0662 28.1463 92.5541 42.6343 92.5541 60.5061C92.5541 78.3779 78.0662 92.8668 60.1934 92.8668Z" fill="url(#paint1_linear_0_35)"/>
<path d="M111.61 46.7518L112.435 31.9219C112.493 30.9265 111.952 29.9916 111.06 29.5462L97.8556 22.8693L91.1787 9.66497C90.7245 8.78091 89.7955 8.24265 88.803 8.28954L73.9477 9.09058L61.5689 0.912238C60.7346 0.362262 59.6532 0.362262 58.818 0.912238L46.4391 9.09058L31.6103 8.26512C30.6139 8.20651 29.68 8.7477 29.2345 9.64055L22.5567 22.8449L9.35332 29.5218C8.46828 29.975 7.931 30.904 7.97789 31.8975L8.80237 46.7273L0.625007 59.1062C0.0750303 59.9405 0.0750303 61.0218 0.625007 61.8571L8.77795 74.2604L7.95249 89.0902C7.89486 90.0856 8.43507 91.0205 9.32792 91.4659L22.5322 98.1428L29.2091 111.347C29.6624 112.232 30.5914 112.769 31.5849 112.723L46.4147 111.897L58.7936 120.074C59.6229 120.642 60.7151 120.642 61.5444 120.074L73.9233 111.897L88.7532 112.723C89.7486 112.78 90.6825 112.239 91.1289 111.347L97.8058 98.1428L111.01 91.4659C111.894 91.0117 112.432 90.0837 112.386 89.0902L111.56 74.2604L119.737 61.8815C120.287 61.0472 120.287 59.9649 119.737 59.1306L111.61 46.7518ZM106.958 72.2099C106.653 72.6573 106.512 73.1956 106.559 73.7358L107.333 87.7646L94.8547 94.0664C94.3789 94.3047 93.9931 94.6916 93.7547 95.1673L87.452 107.646L73.4232 106.871C72.8859 106.852 72.3554 106.99 71.8973 107.271L60.1934 114.999L48.4906 107.271C48.0842 106.996 47.6055 106.848 47.1151 106.846H46.9901L32.9603 107.621L26.6585 95.1419C26.4202 94.6662 26.0343 94.2803 25.5576 94.0419L13.0537 87.7646L13.8293 73.7358C13.8489 73.1985 13.7092 72.6681 13.4288 72.2099L5.70179 60.5061L13.4288 48.8022C13.7346 48.3558 13.8762 47.8165 13.8293 47.2773L13.0537 33.2475L25.5332 26.9458C26.0089 26.7074 26.3948 26.3215 26.6331 25.8458L32.9349 13.3663L46.9647 14.142C47.501 14.1605 48.0314 14.0218 48.4906 13.7414L60.1934 6.01442L71.8973 13.7414C72.3447 14.0472 72.8839 14.1888 73.4232 14.142L87.452 13.3663L93.7547 25.8458C93.9931 26.3215 94.3789 26.7074 94.8547 26.9458L107.333 33.2475L106.559 47.2773C106.539 47.8136 106.679 48.3441 106.958 48.8022L114.686 60.5061L106.958 72.2099Z" fill="url(#paint2_linear_0_35)"/>
</g>
<defs>
<linearGradient id="paint0_linear_0_35" x1="60.2199" y1="48.6704" x2="60.2199" y2="72.3599" gradientUnits="userSpaceOnUse">
<stop stop-color="#F81F01"/>
<stop offset="1" stop-color="#EE076E"/>
</linearGradient>
<linearGradient id="paint1_linear_0_35" x1="60.1939" y1="23.1448" x2="60.1939" y2="97.8683" gradientUnits="userSpaceOnUse">
<stop stop-color="#F81F01"/>
<stop offset="1" stop-color="#EE076E"/>
</linearGradient>
<linearGradient id="paint2_linear_0_35" x1="60.1812" y1="0.499756" x2="60.1812" y2="120.5" gradientUnits="userSpaceOnUse">
<stop stop-color="#F81F01"/>
<stop offset="1" stop-color="#EE076E"/>
</linearGradient>
<clipPath id="clip0_0_35">
<rect width="120" height="120" fill="white" transform="translate(0 0.5)"/>
</clipPath>
</defs>
</svg>
